<svg width="16" height="16" viewBox="0 0 16 16" fill="none" xmlns="http://www.w3.org/2000/svg">
<path d="M8.00326 13C8.35425 12.9965 8.68982 12.8451 8.93726 12.5786L11.806 9.51429C11.9303 9.38046 12 9.19942 12 9.01071C12 8.82201 11.9303 8.64097 11.806 8.50714C11.744 8.44019 11.6702 8.38706 11.5889 8.35079C11.5076 8.31453 11.4204 8.29586 11.3323 8.29586C11.2443 8.29586 11.1571 8.31453 11.0758 8.35079C10.9945 8.38706 10.9207 8.44019 10.8586 8.50714L8.67041 10.8571L8.67041 3.71429C8.67041 3.52485 8.60012 3.34316 8.475 3.20921C8.34989 3.07525 8.1802 3 8.00326 3C7.82632 3 7.65663 3.07525 7.53152 3.20921C7.4064 3.34316 7.33611 3.52485 7.33611 3.71429L7.33611 10.8571L5.1412 8.50714C5.01645 8.37264 4.84692 8.2967 4.66988 8.29603C4.49284 8.29536 4.32281 8.37002 4.19718 8.50357C4.07156 8.63713 4.00063 8.81864 4 9.00819C3.99938 9.19773 4.06911 9.37978 4.19385 9.51429L7.06258 12.5786C7.31166 12.8468 7.64995 12.9984 8.00326 13Z" fill="white"/>
</svg>
