<svg width="190" height="64" viewBox="0 0 190 64" fill="none" xmlns="http://www.w3.org/2000/svg">
<g clip-path="url(#clip0_1_434)">
<path d="M46.402 23.0859H48.2242C48.4462 23.0859 48.6263 23.2442 48.6263 23.4393V29.5633H48.7463C49.2763 28.2517 50.6005 27.4886 52.2606 27.4886C55.4149 27.4886 57.2451 29.6266 57.2451 33.2451C57.2451 36.8635 55.4149 39.0015 52.2606 39.0015C50.5985 39.0015 49.2743 38.2191 48.7463 36.9268H48.6263V38.3949C48.6263 38.5901 48.4462 38.7484 48.2242 38.7484H46.402C46.18 38.7484 46 38.5901 46 38.3949V23.4393C46 23.2442 46.18 23.0859 46.402 23.0859ZM54.4748 34.1963V32.2921C54.4748 30.5989 53.2707 29.4771 51.4645 29.4771C49.8764 29.4771 48.6243 30.2385 48.6243 31.3602V35.1281C48.6243 36.2499 49.8764 37.0112 51.4645 37.0112C53.2707 37.0112 54.4748 35.8895 54.4748 34.1963Z" fill="white"/>
<path d="M58.9766 33.2448C58.9766 29.7318 61.2408 27.4883 64.7311 27.4883C68.2215 27.4883 70.4857 29.7318 70.4857 33.2448C70.4857 36.7577 68.2215 39.0012 64.7311 39.0012C61.2408 39.0012 58.9766 36.7577 58.9766 33.2448ZM67.7154 34.1766V32.3147C67.7154 30.3683 66.5113 29.3942 64.7291 29.3942C62.947 29.3942 61.7428 30.3683 61.7428 32.3147V34.1766C61.7428 36.123 62.947 37.0971 64.7291 37.0971C66.5113 37.0971 67.7154 36.123 67.7154 34.1766Z" fill="white"/>
<path d="M72.8399 38.3947V28.0949C72.8399 27.8997 73.02 27.7415 73.242 27.7415H75.0642C75.2862 27.7415 75.4662 27.8997 75.4662 28.0949V29.563H75.5862C76.1163 28.378 77.1744 27.4883 79.1006 27.4883C81.6528 27.4883 83.169 29.0549 83.169 31.7643V38.3964C83.169 38.5916 82.9889 38.7498 82.7669 38.7498H80.9447C80.7227 38.7498 80.5427 38.5916 80.5427 38.3964V32.0615C80.5427 30.3472 79.7966 29.4786 78.1825 29.4786C76.8103 29.4786 75.4622 30.0922 75.4622 31.3828V38.3947C75.4622 38.5898 75.2822 38.7481 75.0602 38.7481H73.238C73.016 38.7481 72.8359 38.5898 72.8359 38.3947H72.8399Z" fill="white"/>
<path d="M86.8084 29.6251H85.3083C85.0863 29.6251 84.9062 29.4668 84.9062 29.2716V28.0936C84.9062 27.8985 85.0863 27.7402 85.3083 27.7402H86.8084V25.9204C86.8084 24.1429 87.8925 23.0844 89.9867 23.0844H91.6569C91.8789 23.0844 92.059 23.2426 92.059 23.4378V24.6158C92.059 24.811 91.8789 24.9692 91.6569 24.9692H89.4347V27.742H96.4734C96.6954 27.742 96.8754 27.9002 96.8754 28.0954V38.3952C96.8754 38.5903 96.6954 38.7486 96.4734 38.7486H94.6512C94.4292 38.7486 94.2492 38.5903 94.2492 38.3952V29.6268H89.4347V38.3952C89.4347 38.5903 89.2547 38.7486 89.0327 38.7486H87.2105C86.9885 38.7486 86.8084 38.5903 86.8084 38.3952V29.6268V29.6251ZM94.0071 24.5666V24.2062C94.0071 23.5081 94.4892 23 95.5713 23C96.6534 23 97.1114 23.5081 97.1114 24.2062V24.5666C97.1114 25.2646 96.6534 25.7727 95.5713 25.7727C94.4892 25.7727 94.0071 25.2646 94.0071 24.5666Z" fill="white"/>
<path d="M100.023 38.3915V28.0917C100.023 27.8965 100.203 27.7383 100.425 27.7383H102.248C102.47 27.7383 102.65 27.8965 102.65 28.0917V29.8552H102.77C103.132 28.7334 104.214 27.7383 106.212 27.7383H106.51C106.732 27.7383 106.912 27.8965 106.912 28.0917V29.6091C106.912 29.8042 106.732 29.9625 106.51 29.9625H105.876C103.806 29.9625 102.65 30.5761 102.65 31.7189V38.3932C102.65 38.5884 102.47 38.7466 102.248 38.7466H100.425C100.203 38.7466 100.023 38.5884 100.023 38.3932V38.3915Z" fill="white"/>
<path d="M107.926 33.2448C107.926 29.7318 110.116 27.4883 113.68 27.4883C117.245 27.4883 119.243 29.9217 119.243 32.9705V33.4856C119.243 33.6808 119.063 33.8391 118.841 33.8391H110.648V34.1995C110.648 35.8927 111.828 37.0988 113.946 37.0988C115.315 37.0988 116.283 36.5995 116.989 35.7766C117.133 35.6096 117.415 35.5973 117.585 35.7432L118.547 36.5766C118.689 36.6997 118.709 36.8949 118.591 37.0355C117.607 38.2276 115.865 39.0048 113.68 39.0048C110.116 39.0048 107.926 36.7612 107.926 33.2483V33.2448ZM110.646 32.1652V32.3129H116.473V32.1019C116.473 30.4087 115.413 29.287 113.68 29.287C111.948 29.287 110.646 30.472 110.646 32.1652Z" fill="white"/>
<path d="M127.883 38.7484C126.101 38.7484 125.211 37.8798 125.211 36.4626V23.4393C125.211 23.2442 125.391 23.0859 125.613 23.0859H127.435C127.657 23.0859 127.837 23.2442 127.837 23.4393V36.8635H129.169C129.391 36.8635 129.571 37.0218 129.571 37.2169V38.3949C129.571 38.5901 129.391 38.7484 129.169 38.7484H127.885H127.883Z" fill="white"/>
<path d="M140.98 38.7481C139.607 38.7481 138.885 37.9867 138.715 36.9072H138.595C138.113 38.2821 136.765 39.003 134.935 39.003C132.359 39.003 130.891 37.7125 130.891 35.7221C130.891 33.5419 132.745 32.4201 136.235 32.4201H138.499V31.4883C138.499 30.1555 137.681 29.3714 135.923 29.3714C134.637 29.3714 133.795 29.8566 133.185 30.5599C133.043 30.7234 132.769 30.7393 132.595 30.6004L131.623 29.825C131.475 29.7072 131.447 29.5085 131.561 29.3643C132.409 28.2707 133.837 27.4883 136.091 27.4883C139.317 27.4883 141.124 28.8843 141.124 31.3406V36.865H142.046C142.268 36.865 142.448 37.0232 142.448 37.2184V38.3964C142.448 38.5916 142.268 38.7498 142.046 38.7498H140.978L140.98 38.7481ZM138.499 35.4883V33.9006H136.285C134.455 33.9006 133.565 34.4298 133.565 35.3828V35.7643C133.565 36.7384 134.383 37.2465 135.683 37.2465C137.297 37.2465 138.499 36.5696 138.499 35.49V35.4883Z" fill="white"/>
<path d="M144.816 23.0859H146.638C146.86 23.0859 147.04 23.2442 147.04 23.4393V29.5633H147.16C147.69 28.2517 149.015 27.4886 150.675 27.4886C153.829 27.4886 155.659 29.6266 155.659 33.2451C155.659 36.8635 153.829 39.0015 150.675 39.0015C149.013 39.0015 147.688 38.2191 147.16 36.9268H147.04V38.3949C147.04 38.5901 146.86 38.7484 146.638 38.7484H144.816C144.594 38.7484 144.414 38.5901 144.414 38.3949V23.4393C144.414 23.2442 144.594 23.0859 144.816 23.0859ZM152.889 34.1963V32.2921C152.889 30.5989 151.685 29.4771 149.879 29.4771C148.29 29.4771 147.038 30.2385 147.038 31.3602V35.1281C147.038 36.2499 148.29 37.0112 149.879 37.0112C151.685 37.0112 152.889 35.8895 152.889 34.1963Z" fill="white"/>
<path d="M157.247 36.698L158.345 35.8153C158.507 35.6852 158.759 35.694 158.909 35.8364C159.777 36.6522 160.834 37.1393 162.186 37.1393C163.702 37.1393 164.474 36.5889 164.474 35.6571C164.474 34.9591 163.992 34.4298 162.692 34.2821L161.536 34.1555C158.983 33.8812 157.419 32.9072 157.419 30.8747C157.419 28.7366 159.321 27.4883 162.066 27.4883C164.144 27.4883 165.388 28.0404 166.454 28.9828C166.612 29.1234 166.61 29.352 166.446 29.4874L165.422 30.3472C165.266 30.4791 165.016 30.4843 164.86 30.3507C164.204 29.7881 163.244 29.3503 162.066 29.3503C160.622 29.3503 159.947 29.9006 159.947 30.7252C159.947 31.5498 160.55 31.9525 161.874 32.1423L163.03 32.2689C165.774 32.6294 167.002 33.6861 167.002 35.4654C167.002 37.5823 165.052 38.9995 162.042 38.9995C159.849 38.9995 158.363 38.3243 157.219 37.192C157.073 37.0478 157.085 36.8263 157.247 36.6962V36.698Z" fill="white"/>
<path d="M34.9584 27.875C34.8024 29.0847 34.2344 30.2328 33.3483 31.1594C33.2063 31.3088 32.9342 31.1717 33.0063 30.9871C33.5023 29.7352 33.5343 28.3532 33.0783 27.082C32.6062 25.7633 31.6261 24.6064 30.33 23.831C29.982 23.6218 29.6099 23.4407 29.2239 23.2895C29.0239 23.2121 28.8218 23.1418 28.6138 23.082C28.5918 23.075 28.4438 23.0398 28.2998 23.0064C28.1558 22.973 28.0318 23.075 28.0498 23.1998C28.2138 24.4658 27.9318 25.7633 27.2337 26.8816C26.8917 27.4301 26.4536 27.9066 25.9636 28.3532C25.4735 28.7998 25.0455 29.329 24.7254 29.8934C23.5153 32.0297 23.8414 34.6618 25.5375 36.5185C27.1257 38.2574 29.7159 39.1154 32.2122 38.7321C34.7084 38.3488 36.7646 36.7945 37.6027 34.7233C38.5348 32.4218 37.8007 29.7827 35.7685 28.1211C35.6125 27.9928 35.4485 27.8715 35.2805 27.7572C35.1585 27.6745 34.9764 27.7396 34.9584 27.875Z" fill="white"/>
</g>
<defs>
<clipPath id="clip0_1_434">
<rect width="143" height="16" fill="white" transform="translate(24 23)"/>
</clipPath>
</defs>
</svg>
