<svg width="185" height="64" viewBox="0 0 185 64" fill="none" xmlns="http://www.w3.org/2000/svg">
<mask id="mask0_1_451" style="mask-type:luminance" maskUnits="userSpaceOnUse" x="19" y="18" width="142" height="28">
<path d="M161 18H19V45.381H161V18Z" fill="white"/>
</mask>
<g mask="url(#mask0_1_451)">
<path d="M36.1602 37.9966C35.2793 39.318 31.5682 43.4695 19.0906 44.7252C18.9624 44.7383 18.9657 44.9257 19.0939 44.9289L27.2819 45.2708C38.6485 45.9907 42.8395 43.0422 45.5315 39.5744C47.0534 37.612 48.0757 35.3111 48.6345 32.8918C49.3149 29.9401 49.923 27.8232 51.3923 24.3225C53.3317 19.7042 62.6636 18.3171 62.6636 18.3171L62.4236 18.1692C62.2165 18.041 61.9667 17.9818 61.7235 18.0114C57.309 18.5209 53.644 19.9442 52.0202 20.6607C51.4614 20.9073 50.8335 20.9467 50.2517 20.7594C47.8193 19.9803 41.2124 19.3394 40.5813 28.3689C40.5451 28.8882 39.9271 29.1347 39.536 28.7896C37.5539 27.0277 35.7099 23.8262 19.2517 18.0738C19.1366 18.0344 19.0282 18.1527 19.0775 18.2612C20.2181 20.7758 28.531 38.5028 35.9564 37.6613C36.1405 37.6416 36.2654 37.8421 36.1602 37.9966Z" fill="white"/>
<path d="M60.3086 32.6683C60.3086 31.1497 61.2585 29.7922 62.6851 29.2695V34.1837H65.1767V34.8016H62.6851V40.5638L62.6621 42.5294C62.6621 43.0619 62.6917 43.4531 62.7542 43.6963C62.8133 43.9396 62.9448 44.0875 63.142 44.1302C63.3557 44.1762 63.6121 44.1138 63.9079 43.9462C64.2037 43.7785 64.4897 43.5057 64.7658 43.1244L65.1307 43.4202C64.8414 43.818 64.4733 44.1335 64.0328 44.3702C63.5923 44.6068 63.1322 44.7252 62.6621 44.7252C61.8075 44.7252 61.2027 44.5017 60.8444 44.0513C60.4861 43.601 60.3086 42.8516 60.3086 41.7997V32.6683Z" fill="white"/>
<path d="M68.0933 43.9733C67.2157 43.5164 66.5353 42.882 66.0455 42.0766C65.5557 41.268 65.3125 40.3477 65.3125 39.3123C65.3125 38.2769 65.5623 37.3532 66.0652 36.5445C66.5682 35.7359 67.2617 35.1048 68.1459 34.6479C69.0301 34.191 70.0294 33.9609 71.1404 33.9609C72.1923 33.9609 73.1225 34.1812 73.9311 34.6249C74.7397 35.0654 75.3643 35.6932 75.8047 36.4986C76.2452 37.3072 76.4687 38.244 76.4687 39.3123H67.8041V39.3353C67.8041 40.2031 67.9914 40.9755 68.3629 41.646C68.7343 42.3166 69.2306 42.836 69.8486 43.2008C70.4666 43.5657 71.124 43.7498 71.8274 43.7498C72.5308 43.7498 73.1422 43.5723 73.7602 43.2107C74.3782 42.8524 74.9008 42.3232 75.3281 41.6231L76.0381 42.1489C75.5944 42.9115 74.9205 43.5196 74.0133 43.9798C73.1061 44.4367 72.12 44.6636 71.0517 44.6636C69.9834 44.6636 68.9677 44.4367 68.0901 43.9798M74.273 38.6976C74.1974 37.4189 73.8818 36.3999 73.323 35.6439C72.7675 34.8912 72.0312 34.5132 71.1174 34.5132C70.2036 34.5132 69.51 34.9044 68.8987 35.69C68.2873 36.4756 67.929 37.4781 67.8238 38.6976H74.273Z" fill="white"/>
<path d="M79.9257 43.9354C79.1401 43.4259 78.555 42.7587 78.1638 41.9336C77.776 41.1119 77.582 40.2408 77.582 39.327C77.582 38.262 77.799 37.3186 78.2329 36.5034C78.6668 35.6883 79.2814 35.0539 80.0736 34.6035C80.8658 34.1532 81.7796 33.9297 82.8183 33.9297C83.5973 33.9297 84.2974 34.0776 84.922 34.3767C85.5465 34.6758 86.079 35.0834 86.5228 35.5995V34.1828H88.8336V44.4712H86.457V43.0085C85.5104 44.1359 84.2942 44.7013 82.7986 44.7013C81.6711 44.7013 80.7146 44.4482 79.929 43.9354M84.5801 43.6034C85.0666 43.3438 85.5038 42.8902 85.8818 42.2426C86.2631 41.5951 86.4537 40.7141 86.4537 39.6031V39.1232C86.4537 38.0089 86.2631 37.1115 85.8818 36.4245C85.5005 35.7376 85.0568 35.2511 84.544 34.9618C84.0345 34.6726 83.5644 34.5279 83.1371 34.5279C82.1477 34.5279 81.3884 34.9881 80.8625 35.9118C80.3366 36.8321 80.0736 37.9333 80.0736 39.2152C80.0736 40.0239 80.1985 40.793 80.4516 41.526C80.7014 42.259 81.0696 42.8507 81.5495 43.3076C82.0294 43.7645 82.598 43.9946 83.2522 43.9946C83.6499 43.9946 84.0904 43.8664 84.5768 43.6067" fill="white"/>
<path d="M93.2281 29.2695V44.4754H90.8516V32.6716C90.8516 31.1497 91.8015 29.7922 93.2281 29.2728" fill="white"/>
<path d="M104.29 29.2695V36.6095C105.434 34.8411 106.926 33.9568 108.77 33.9568C110.174 33.9568 111.196 34.3381 111.844 35.1007C112.491 35.8633 112.817 37.0598 112.817 38.6902V44.4754H110.44V38.6902C110.44 37.257 110.276 36.2315 109.947 35.6135C109.618 34.9956 109.076 34.6866 108.313 34.6866C107.748 34.6866 107.169 34.8739 106.574 35.2487C105.98 35.6201 105.467 36.1723 105.033 36.9053C104.599 37.6383 104.349 38.5225 104.29 39.558V44.4754H101.91V31.6493C101.91 30.3378 102.975 29.2728 104.287 29.2728" fill="white"/>
<path d="M117.105 43.9733C116.227 43.5164 115.547 42.882 115.057 42.0766C114.567 41.268 114.324 40.3477 114.324 39.3123C114.324 38.2769 114.574 37.3532 115.077 36.5445C115.58 35.7359 116.273 35.1048 117.158 34.6479C118.042 34.191 119.041 33.9609 120.152 33.9609C121.204 33.9609 122.134 34.1812 122.943 34.6249C123.751 35.0654 124.376 35.6932 124.816 36.4986C125.257 37.3072 125.48 38.244 125.48 39.3123H116.816V39.3353C116.816 40.2031 117.003 40.9755 117.378 41.646C117.749 42.3166 118.246 42.836 118.864 43.2008C119.482 43.5657 120.139 43.7498 120.842 43.7498C121.546 43.7498 122.157 43.5723 122.775 43.2107C123.393 42.8524 123.916 42.3232 124.343 41.6231L125.053 42.1489C124.609 42.9115 123.936 43.5196 123.028 43.9798C122.121 44.4367 121.135 44.6636 120.067 44.6636C118.998 44.6636 117.983 44.4367 117.105 43.9798M123.288 38.6976C123.212 37.4189 122.897 36.3999 122.338 35.6439C121.783 34.8912 121.046 34.5132 120.132 34.5132C119.219 34.5132 118.525 34.9044 117.914 35.69C117.302 36.4756 116.944 37.4781 116.839 38.6976H123.288Z" fill="white"/>
<path d="M128.937 43.9354C128.152 43.4259 127.567 42.7587 127.176 41.9336C126.788 41.1119 126.594 40.2408 126.594 39.327C126.594 38.262 126.811 37.3186 127.245 36.5034C127.678 35.6883 128.293 35.0539 129.085 34.6035C129.878 34.1532 130.791 33.9297 131.83 33.9297C132.609 33.9297 133.309 34.0776 133.934 34.3767C134.558 34.6758 135.091 35.0834 135.534 35.5995V34.1828H137.845V44.4712H135.469V43.0085C134.525 44.1359 133.306 44.7013 131.81 44.7013C130.683 44.7013 129.726 44.4482 128.941 43.9354M133.592 43.6034C134.078 43.3438 134.516 42.8902 134.897 42.2426C135.278 41.5951 135.469 40.7141 135.469 39.6031V39.1232C135.469 38.0089 135.278 37.1115 134.897 36.4245C134.516 35.7376 134.068 35.2511 133.559 34.9618C133.049 34.6726 132.579 34.5279 132.152 34.5279C131.159 34.5279 130.403 34.9881 129.878 35.9118C129.352 36.8321 129.089 37.9333 129.089 39.2152C129.089 40.0239 129.214 40.793 129.467 41.526C129.72 42.259 130.085 42.8507 130.564 43.3076C131.044 43.7645 131.613 43.9946 132.267 43.9946C132.665 43.9946 133.105 43.8664 133.592 43.6067" fill="white"/>
<path d="M142.193 29.2695V44.4754H139.816V32.6716C139.816 31.1497 140.766 29.7922 142.193 29.2728" fill="white"/>
<path d="M144.102 32.6683C144.102 31.1497 145.052 29.7922 146.478 29.2695V34.1837H148.97V34.8016H146.478V40.5638L146.455 42.5294C146.455 43.0619 146.485 43.4531 146.547 43.6963C146.606 43.9396 146.738 44.0875 146.935 44.1302C147.149 44.1762 147.405 44.1138 147.701 43.9462C147.997 43.7785 148.283 43.5057 148.559 43.1244L148.924 43.4202C148.634 43.818 148.27 44.1335 147.826 44.3702C147.382 44.6068 146.925 44.7252 146.455 44.7252C145.6 44.7252 144.996 44.5017 144.637 44.0513C144.279 43.601 144.102 42.8516 144.102 41.7997V32.6683Z" fill="white"/>
<path d="M152.468 29.2695V36.6095C153.611 34.8411 155.104 33.9568 156.951 33.9568C158.351 33.9568 159.377 34.3381 160.025 35.1007C160.672 35.8633 160.997 37.0598 160.997 38.6902V44.4754H158.621V38.6902C158.621 37.257 158.457 36.2315 158.131 35.6135C157.802 34.9956 157.26 34.6866 156.498 34.6866C155.932 34.6866 155.354 34.8739 154.759 35.2487C154.164 35.6201 153.651 36.1723 153.217 36.9053C152.783 37.6383 152.533 38.5225 152.474 39.558V44.4754H150.098V31.6493C150.098 30.3378 151.163 29.2728 152.474 29.2728" fill="white"/>
</g>
</svg>
