<svg width="190" height="64" viewBox="0 0 190 64" fill="none" xmlns="http://www.w3.org/2000/svg">
<path d="M56.6625 42.244C56.4561 41.8828 55.9847 41.7001 55.6147 41.8318C55.6147 41.8318 55.0225 42.0485 54.0681 42.3332C53.0436 42.6348 52.0658 44.3387 51.497 44.4152C50.7413 44.5129 48.2754 44.2197 48.2754 44.2197C47.8858 44.173 47.3911 44.4194 47.169 44.7721C47.169 44.7721 46.6081 45.6601 45.8523 46.3739C45.0966 47.0835 44.9485 47.4531 44.9485 47.4531C44.7888 47.844 44.6564 48.2477 44.6486 48.3539C44.6408 48.4602 44.9408 48.987 45.3303 48.987H45.7783C46.1679 48.987 46.4795 48.6386 46.4717 48.2137C46.4717 48.2137 46.4639 47.7293 46.4873 47.5254L46.5107 47.3342C46.5964 47.075 46.8574 46.5821 47.0911 46.2422L47.5508 45.5794C47.7612 45.2224 47.9598 44.9293 47.991 44.9335C48.0221 44.9378 48.365 44.9718 48.7545 45.0185C48.7545 45.0185 50.2933 45.1927 51.0841 45.1885C51.2789 45.1885 51.4386 45.18 51.5788 45.1587L51.6645 45.146C51.7619 45.1162 51.7346 45.4264 51.6061 45.8258C51.6061 45.8258 51.1776 47.1685 50.8114 48.0012C50.7646 48.1075 50.7569 48.2095 50.7569 48.2095C50.7296 48.6343 51.0295 48.9828 51.4191 48.9828H57.691C58.0805 48.9828 58.3883 48.936 58.3727 48.8765V48.8213C58.3065 47.7548 58.4545 46.2762 58.4545 46.2762C58.4974 45.8513 58.3181 45.2479 58.0572 44.9335L56.6625 42.2355V42.244Z" fill="white"/>
<path d="M69.1646 15.7733V48.2182C69.1646 48.6431 68.8491 48.9915 68.4556 48.9915H65.5807C65.195 48.9915 64.9808 48.8003 65.1093 48.5709L65.0704 48.2649C64.8055 46.2127 63.7186 43.2342 63.3836 42.788L63.3368 42.7201C63.2979 42.6223 63.0408 43.4211 62.9746 43.7483C62.9122 44.0797 62.8421 44.5938 62.8499 44.6151C62.8577 44.6406 62.9356 44.9933 63.0213 45.4139L63.2356 48.2182C63.255 48.6473 63.1304 48.9915 62.9629 48.9915C62.7954 48.9915 62.6356 48.6431 62.6161 48.2182C62.6161 48.2182 62.4993 45.3077 62.3045 44.8828L62.2305 44.7128C62.2422 44.4367 62.3668 43.8843 62.4954 43.4806C62.4954 43.4806 63.1577 41.4624 63.5082 38.9598C63.6797 37.7318 63.7731 36.3892 63.6797 35.1017C63.6368 34.5281 64.7899 34.2817 64.8951 34.2265C65.0938 34.1202 65.4365 33.6231 65.7716 33.0197C66.1183 32.3909 66.4494 31.6431 66.5974 31.1035C66.6247 30.9973 66.3169 31.0567 66.3442 30.9505C66.3715 30.8401 66.3598 30.4066 66.352 30.2792C66.3559 29.9053 66.1533 29.7226 65.9897 29.5951C65.8845 29.5186 65.795 29.4549 65.7755 29.3784C65.7287 29.1744 65.3431 28.4564 65.1288 28.3459C64.9262 28.2397 64.9262 27.6491 64.9925 27.4919C65.0587 27.3304 65.5807 26.9565 65.5963 26.5996V26.5826C65.6002 26.4339 65.569 26.3404 65.5145 26.2639C65.3392 26.0303 64.9145 25.9283 64.4198 24.6876C64.2017 24.1395 63.9485 23.1452 63.8043 23.0475C63.3563 22.7543 62.546 22.5546 61.0268 22.2954C59.8191 22.0915 59.3205 23.6211 58.2531 24.985C58.035 25.2697 57.1078 26.9565 57.1078 26.9565C56.9092 27.3134 56.4689 27.7935 56.1378 28.0188C56.1378 28.0188 53.5667 29.7098 52.2072 30.8443C50.8476 31.9745 49.8854 34.2052 48.0545 34.7576C47.1936 35.0125 45.46 35.7348 44.9069 36.3212C43.8239 37.4641 43.4188 38.008 43.1383 38.9895C42.8656 39.9625 42.6046 40.8038 42.4137 41.3859C42.2384 41.9383 42.1293 42.2612 42.1293 42.2612C41.9891 42.6563 41.732 43.2894 41.5528 43.6676C41.5528 43.6676 40.5828 45.6858 40.2477 46.4719C40.0374 46.9775 40.0841 48.2267 40.0841 48.2267C40.0997 48.6516 39.792 49 39.3985 49H38.709C38.3233 49 38 48.6516 38 48.2267V30.2622C38 21.8366 44.268 15 51.9968 15H68.4595C68.853 15 69.1685 15.3442 69.1685 15.7733H69.1646Z" fill="white"/>
<path d="M77.6804 37.4975C78.436 37.0216 79.2738 36.7794 80.1696 36.7794C80.832 36.7794 81.4863 36.9111 82.1136 37.1746C82.7367 37.4337 83.2939 37.8119 83.7693 38.2963L83.8862 38.4153L84.7704 37.2341L84.6613 37.1278C84.0612 36.5542 83.3641 36.0996 82.589 35.7809C81.8097 35.4622 80.9957 35.3008 80.1696 35.3008C79.001 35.3008 77.9064 35.611 76.9171 36.2185C75.9273 36.8261 75.1328 37.659 74.5639 38.6914C73.9876 39.724 73.6992 40.8796 73.6992 42.1203C73.6992 43.361 73.9915 44.521 74.5639 45.5705C75.1367 46.6157 75.9234 47.457 76.9015 48.0731C77.8792 48.685 78.962 48.9951 80.119 48.9951C80.9333 48.9951 81.7474 48.8379 82.5384 48.5235C83.329 48.2133 84.0304 47.7757 84.6262 47.2233L84.6808 47.1723V42.1203H83.3251V46.3905C82.8731 46.7347 82.3786 47.0024 81.8526 47.1936C81.3032 47.3933 80.7424 47.4952 80.1852 47.4952C79.2855 47.4952 78.4438 47.2531 77.6843 46.7729C76.9249 46.297 76.317 45.6427 75.8689 44.8227C75.425 44.0026 75.2029 43.0934 75.2029 42.1161C75.2029 41.1388 75.4289 40.2508 75.8689 39.4392C76.3131 38.632 76.921 37.9776 77.6765 37.4932L77.6804 37.4975Z" fill="white"/>
<path d="M136.634 35.418H135.197L130.253 47.3872H124.25V35.418H122.758V48.8829H131.164L131.301 48.8531V48.7681L132.656 45.3902H139.143L140.534 48.7851L140.572 48.8829H142.201L136.638 35.418H136.634ZM138.543 43.8903H133.257L135.882 37.364L138.543 43.8903Z" fill="white"/>
<path d="M124.052 28.4819H125.544V16.5169H129.525V15H120.074V16.5169H124.052V28.4819Z" fill="white"/>
<path d="M133.019 22.5079H140.246V27.0797L140.444 27.0075C140.565 26.965 140.779 26.9395 140.919 26.9395C141.165 26.9395 141.426 27.0925 141.496 27.1477L141.734 27.3262V15H140.242V21.0122H133.015V15H131.523V28.4606H133.015V22.5079H133.019Z" fill="white"/>
<path d="M74.9704 26.9353C75.1029 26.9353 75.2354 26.9608 75.364 27.0075L75.5662 27.084V22.5079H82.7926V28.4606H84.2846V15H82.7926V21.0122H75.5662V15H74.0742V27.3389L74.3158 27.1434C74.4444 27.0415 74.7249 26.931 74.9704 26.931V26.9353Z" fill="white"/>
<path d="M94.8576 36.2146C93.9189 35.607 92.8785 35.2969 91.7606 35.2969C90.6426 35.2969 89.6026 35.607 88.6674 36.2146C87.7326 36.8222 86.9809 37.655 86.4315 38.6875C85.8821 39.72 85.6016 40.8757 85.6016 42.1164C85.6016 43.3571 85.8821 44.5171 86.4315 45.5666C86.9809 46.6118 87.7326 47.4531 88.6674 48.0692C89.5987 48.6811 90.6426 48.9912 91.7645 48.9912C92.8863 48.9912 93.9267 48.6811 94.8615 48.0692C95.7964 47.4531 96.5484 46.6118 97.0975 45.5666C97.6469 44.5171 97.9274 43.3571 97.9274 42.1164C97.9274 40.8757 97.6469 39.72 97.0975 38.6875C96.5523 37.655 95.8003 36.8222 94.8615 36.2146H94.8576ZM91.7801 47.4914C90.931 47.4914 90.1322 47.2491 89.4156 46.769C88.6908 46.2889 88.1106 45.6303 87.6898 44.806C87.265 43.986 87.0507 43.0809 87.0507 42.1122C87.0507 41.1434 87.265 40.2469 87.6898 39.4354C88.1145 38.6238 88.6947 37.9737 89.4156 37.5021C90.1361 37.0304 90.931 36.7925 91.784 36.7925C92.6373 36.7925 93.4085 37.0304 94.1251 37.5021C94.8421 37.9695 95.4187 38.6196 95.8431 39.4354C96.2678 40.2426 96.4822 41.1434 96.4822 42.1122C96.4822 43.0809 96.2678 43.9902 95.8431 44.806C95.4187 45.6303 94.8421 46.2889 94.1251 46.769C93.4085 47.2491 92.6217 47.4914 91.784 47.4914H91.7801Z" fill="white"/>
<path d="M107.707 42.7566C108.205 42.0045 108.458 41.057 108.458 39.9353C108.458 38.5034 108.026 37.3732 107.173 36.5871C106.324 35.8096 105.12 35.4102 103.585 35.4102H98.9375V48.875H100.43V44.6261H103.585C103.737 44.6261 103.99 44.6219 104.352 44.5964L106.904 48.7986L106.951 48.8708H108.7L105.759 44.2692C106.588 43.959 107.243 43.4491 107.707 42.7523V42.7566ZM107.017 39.9735C107.017 40.9975 106.721 41.7836 106.14 42.3189C105.552 42.8586 104.691 43.1347 103.585 43.1347H100.43V36.91H103.585C104.695 36.91 105.552 37.1735 106.14 37.7003C106.721 38.2145 107.013 38.9793 107.013 39.9735H107.017Z" fill="white"/>
<path d="M111.918 35.418H110.426V48.8829H111.918V35.418Z" fill="white"/>
<path d="M115.687 35.418H114.195V48.8786H121.831V47.383H115.687V35.418Z" fill="white"/>
<path d="M96.1288 26.9693H89.035V22.3549H95.1823V20.8635H89.035V16.4956H95.9067V15H87.5391V28.4606H96.1288V26.9693Z" fill="white"/>
<path d="M104.789 15H103.352L97.8865 28.2312L97.7891 28.4649H99.398L100.812 24.9722H107.298L108.728 28.4649H110.352L104.828 15.0977L104.789 15ZM106.694 23.4724H101.408L104.037 16.946L106.694 23.4724Z" fill="white"/>
<path d="M120.061 26.9693H113.918V15H112.43V28.4606H120.061V26.9693Z" fill="white"/>
<path d="M140.935 27.8366C140.588 27.8366 140.303 28.0873 140.214 28.4357C139.061 28.7161 137.822 28.9838 136.494 29.2345C134.573 29.5914 132.497 29.8379 130.257 30.1055C128.04 30.335 125.695 30.5474 123.264 30.7089C120.833 30.8916 118.317 30.9681 115.761 31.0743C114.484 31.1083 113.194 31.138 111.901 31.1678C110.607 31.172 109.306 31.1805 108.005 31.1848C106.704 31.1805 105.399 31.172 104.102 31.1635C102.808 31.1338 101.523 31.0998 100.245 31.0701C97.6897 30.9639 95.1733 30.8874 92.7425 30.7046C90.3114 30.5432 87.9625 30.3265 85.7422 30.097C84.6356 29.9611 83.5488 29.8421 82.5165 29.6934C81.9944 29.6169 81.4765 29.5532 80.9739 29.4725C80.4751 29.3875 79.9884 29.3067 79.513 29.226C78.1846 28.9753 76.9459 28.7119 75.7968 28.4272C75.7071 28.083 75.4188 27.8281 75.0759 27.8281C74.659 27.8281 74.3242 28.1935 74.3242 28.6482C74.3242 29.1028 74.659 29.4682 75.0759 29.4682C75.2551 29.4682 75.4188 29.396 75.5474 29.2812C76.7043 29.6637 77.9547 30.0333 79.3065 30.369C79.7897 30.4837 80.2881 30.5984 80.7907 30.7174C81.2934 30.8321 81.8035 30.9256 82.3217 31.0361C83.3734 31.257 84.4563 31.41 85.5707 31.6054C87.8027 31.9368 90.1634 32.281 92.6178 32.4935C95.068 32.7314 97.604 32.9311 100.183 33.0416C101.476 33.0841 102.778 33.1266 104.086 33.1733C105.388 33.1903 106.696 33.2073 108.005 33.2285C109.318 33.2073 110.627 33.1903 111.932 33.1733C113.237 33.1266 114.538 33.0841 115.827 33.0416C118.406 32.9269 120.943 32.7356 123.393 32.4935C125.843 32.281 128.204 31.9368 130.444 31.6012C132.656 31.2485 134.783 30.8491 136.704 30.3647C138.056 30.0333 139.306 29.6637 140.467 29.2812C140.596 29.396 140.759 29.4682 140.943 29.4682C141.359 29.4682 141.694 29.0986 141.694 28.6482C141.694 28.1978 141.355 27.8281 140.943 27.8281L140.935 27.8366Z" fill="white"/>
<path d="M146.422 15.2677C146.706 15.4461 146.932 15.6883 147.092 15.9985C147.256 16.3087 147.338 16.6528 147.338 17.031C147.338 17.4091 147.256 17.7576 147.088 18.072C146.921 18.3864 146.695 18.6328 146.41 18.8155C146.122 18.9982 145.807 19.0875 145.46 19.0875C145.113 19.0875 144.797 18.9982 144.513 18.8155C144.229 18.6328 144.003 18.3864 143.839 18.0762C143.676 17.7618 143.594 17.4219 143.594 17.0437C143.594 16.6656 143.676 16.3257 143.839 16.0112C144.003 15.6968 144.229 15.4504 144.517 15.2719C144.805 15.0892 145.121 15 145.472 15C145.822 15 146.142 15.0892 146.426 15.2677H146.422ZM146.258 18.5394C146.496 18.3864 146.687 18.174 146.823 17.9105C146.96 17.6471 147.03 17.3539 147.03 17.031C147.03 16.7081 146.964 16.4191 146.827 16.16C146.691 15.9008 146.508 15.6926 146.27 15.5439C146.033 15.3951 145.768 15.3187 145.468 15.3187C145.168 15.3187 144.903 15.3951 144.661 15.5481C144.42 15.7011 144.233 15.9093 144.096 16.1727C143.96 16.4361 143.894 16.7251 143.894 17.048C143.894 17.3709 143.96 17.6598 144.096 17.9233C144.233 18.1867 144.42 18.3949 144.658 18.5479C144.895 18.7008 145.164 18.7773 145.456 18.7773C145.748 18.7773 146.017 18.7008 146.254 18.5436L146.258 18.5394ZM146.321 17.133C146.247 17.2519 146.146 17.3454 146.009 17.4049L146.476 18.1867H146.021L145.608 17.4899H145.136V18.1867H144.681V15.905H145.553C145.826 15.905 146.04 15.9773 146.2 16.1175C146.356 16.2619 146.438 16.4531 146.438 16.6953C146.438 16.8653 146.402 17.0097 146.328 17.1287L146.321 17.133ZM145.522 17.1032C145.67 17.1032 145.787 17.0692 145.869 16.997C145.951 16.9248 145.99 16.827 145.99 16.6996C145.99 16.5721 145.951 16.4744 145.869 16.4064C145.787 16.3384 145.674 16.3002 145.522 16.3002H145.129V17.1032H145.522Z" fill="white"/>
</svg>
