<svg width="190" height="64" viewBox="0 0 190 64" fill="none" xmlns="http://www.w3.org/2000/svg">
<path d="M31 40.2536H33.6536V24H31V40.2536Z" fill="white"/>
<path d="M39.1881 35.0347H47.8125C48.1221 30.7226 45.9549 27.9805 42.2619 27.9805C38.7458 27.9805 36.3133 30.5014 36.3133 34.4156C36.3133 38.0422 38.7901 40.5853 42.3946 40.5853C44.7166 40.5853 46.7731 39.3469 47.6798 37.1798L45.0483 36.3837C44.5396 37.4894 43.5666 38.0864 42.2619 38.0864C40.4486 38.0864 39.3871 37.0029 39.1881 35.0347ZM42.3725 30.3024C44.0089 30.3024 44.8713 31.1427 45.1146 33.0003H39.2545C39.5641 31.2312 40.5813 30.3024 42.3725 30.3024Z" fill="white"/>
<path d="M53.7735 30.3909H57.2896V28.3122H53.7735V24.9951H51.1199V28.3122H48.9527V30.3909H51.1199V35.3664C51.1199 36.7375 51.0314 37.7547 51.5842 38.7941C52.513 40.4968 54.9234 40.718 57.2896 40.2536V38.0201C55.7858 38.2412 54.5475 38.2412 54.0167 37.3788C53.7293 36.9144 53.7735 36.1625 53.7735 35.2338V30.3909Z" fill="white"/>
<path d="M60.178 29.9928C61.9913 30.2803 62.898 29.2188 62.898 27.2728V24.3317H60.178V27.1623H61.5933C61.726 28.1795 61.35 28.9092 60.3328 28.8429L60.178 29.9928Z" fill="white"/>
<path d="M68.9815 40.5853C72.0553 40.5853 73.8908 39.1258 73.8908 36.7154C73.8908 34.8578 72.8735 33.9291 69.9987 33.1772C67.2124 32.4696 66.748 32.2263 66.748 31.5187C66.748 30.7226 67.5883 30.2361 68.8267 30.2803C70.1314 30.3687 70.9496 30.9879 71.0823 31.9831L73.8023 31.4965C73.5148 29.3515 71.5688 27.9805 68.7825 27.9805C65.9298 27.9805 64.0944 29.4179 64.0944 31.6513C64.0944 33.4426 65.1337 34.3271 68.1412 35.1232C70.8391 35.8308 71.1708 36.0299 71.1708 36.8481C71.1708 37.7326 70.4189 38.2633 69.1584 38.2633C67.6989 38.2633 66.6817 37.5557 66.4163 36.3616L63.6963 36.7817C64.0944 39.1921 66.0183 40.5853 68.9815 40.5853Z" fill="white"/>
<path d="M82.9836 35.0347H91.608C91.9176 30.7226 89.7504 27.9805 86.0575 27.9805C82.5414 27.9805 80.1089 30.5014 80.1089 34.4156C80.1089 38.0422 82.5856 40.5853 86.1901 40.5853C88.5121 40.5853 90.5686 39.3469 91.4753 37.1798L88.8438 36.3837C88.3352 37.4894 87.3622 38.0864 86.0575 38.0864C84.2441 38.0864 83.1827 37.0029 82.9836 35.0347ZM86.168 30.3024C87.8044 30.3024 88.6669 31.1427 88.9101 33.0003H83.05C83.3596 31.2312 84.3768 30.3024 86.168 30.3024Z" fill="white"/>
<path d="M100.009 27.9805C98.2844 27.9805 96.9797 28.5997 96.1173 29.639V28.3122H93.729V40.2536H96.4269V34.106C96.4269 31.2091 97.8643 30.4793 99.2132 30.4793C101.778 30.4793 102.022 33.0224 102.022 34.504V40.2536H104.72V33.5752C104.72 32.16 104.41 27.9805 100.009 27.9805Z" fill="white"/>
<path d="M115.294 24.3317V28.9092C114.497 28.3122 113.502 27.9805 112.308 27.9805C108.925 27.9805 106.758 30.6562 106.758 34.2829C106.758 37.8653 108.903 40.5853 112.22 40.5853C113.613 40.5853 114.741 40.143 115.603 39.3911V40.2536H117.969V24.3317H115.294ZM112.618 38.197C110.539 38.197 109.588 36.4721 109.588 34.2829C109.588 32.1157 110.561 30.3687 112.706 30.3687C114.741 30.3687 115.603 31.9609 115.603 34.2829C115.603 36.6048 114.763 38.197 112.618 38.197Z" fill="white"/>
<path d="M125.895 24.3633H131.191C135.579 24.3633 139.136 27.9204 139.136 32.3083C139.136 36.6963 135.579 40.2534 131.191 40.2534H125.895V24.3633Z" fill="white"/>
<path d="M139.137 24.3633H157.675L148.406 40.2534L139.137 24.3633Z" fill="white"/>
<circle cx="157.014" cy="38.2675" r="1.98626" fill="white"/>
</svg>
