<svg width="1440" height="828" viewBox="0 0 1440 828" fill="none" xmlns="http://www.w3.org/2000/svg">
<path d="M-227 753.558H1649M-227 385.268H1649M-227 692.177H1649M-227 323.886H1649M-227 630.795H1649M-227 262.505H1649M-227 569.413H1649M-227 201.123H1649M-227 508.032H1649M-227 139.741H1649M-227 446.65H1649M-227 78.3596H1649M319.078 828L319.078 0M-49.3287 828L-49.3288 0M257.677 828L257.677 0M-110.73 828L-110.73 0M196.276 828L196.276 0M-172.131 828L-172.131 0M134.875 828L134.875 0M73.4735 828L73.4735 0M12.0724 828L12.0724 0M1048.05 828L1048.05 0M679.646 828L679.646 0M986.652 828L986.652 0M618.245 828L618.245 0M925.251 828L925.251 0M556.844 828L556.844 0M863.85 828L863.85 0M495.443 828L495.443 0M802.449 828L802.448 0M434.042 828L434.042 0M741.047 828L741.047 0M372.641 828L372.641 0M1408.62 828L1408.62 0M1347.22 828L1347.22 0M1285.82 828L1285.82 0M1592.82 828L1592.82 0M1224.42 828L1224.42 0M1531.42 828L1531.42 0M1163.02 828L1163.02 0M1470.02 828L1470.02 0M1101.62 828L1101.62 0" stroke="url(#paint0_radial_1_362)" stroke-opacity="0.5"/>
<defs>
<radialGradient id="paint0_radial_1_362" cx="0" cy="0" r="1" gradientUnits="userSpaceOnUse" gradientTransform="translate(711 392) rotate(90) scale(411.5 932.336)">
<stop stop-color="white" stop-opacity="0.25"/>
<stop offset="1" stop-color="#19174F" stop-opacity="0"/>
</radialGradient>
</defs>
</svg>
