<svg width="15" height="14" viewBox="0 0 15 14" fill="none" xmlns="http://www.w3.org/2000/svg">
<path d="M12.4742 12.5118C12.5623 12.861 12.3862 13.2102 12.0338 13.4721C11.7695 13.6467 11.3291 13.734 10.9767 13.5594L8.24598 12.1626C7.98171 11.988 7.62936 11.988 7.36509 12.1626L4.63433 13.4721C4.28198 13.734 3.84153 13.6467 3.57727 13.4721C3.313 13.2975 3.13682 12.861 3.22491 12.5118L3.66536 9.45634C3.75344 9.10714 3.57727 8.84524 3.40109 8.58334L1.19887 6.48814C0.934599 6.22624 0.846511 5.78974 1.02269 5.44055C1.11078 5.09135 1.46313 4.82945 1.81549 4.74215L4.8986 4.21835C5.16287 4.21835 5.42713 4.04375 5.51522 3.78185L6.92464 1.07556C7.10082 0.726357 7.45318 0.551758 7.89362 0.551758C8.24598 0.551758 8.59833 0.726357 8.77451 1.07556L10.1839 3.78185C10.3601 4.04375 10.6244 4.21835 10.8886 4.30565L13.8837 4.82945C14.236 4.91675 14.5884 5.17865 14.6765 5.52784C14.7646 5.87704 14.6765 6.22624 14.4122 6.48814L12.21 8.67064C12.0338 8.93254 11.8576 9.19444 11.9457 9.54364L12.4742 12.5118Z" fill="#FF3D2E"/>
</svg>
