<svg width="15" height="14" viewBox="0 0 15 14" fill="none" xmlns="http://www.w3.org/2000/svg">
<path d="M12.4741 12.5108C12.5622 12.86 12.386 13.2092 12.0337 13.4711C11.7694 13.6457 11.329 13.733 10.9766 13.5584L8.24586 12.1617C7.98159 11.9871 7.62923 11.9871 7.36497 12.1617L4.63421 13.4711C4.28186 13.733 3.84141 13.6457 3.57714 13.4711C3.31288 13.2965 3.1367 12.86 3.22479 12.5108L3.66523 9.45536C3.75332 9.10616 3.57714 8.84426 3.40097 8.58236L1.19874 6.48717C0.934477 6.22527 0.846389 5.78877 1.02257 5.43957C1.11066 5.09037 1.46301 4.82847 1.81537 4.74117L4.89848 4.21737C5.16274 4.21737 5.42701 4.04277 5.5151 3.78087L6.92452 1.07458C7.1007 0.725381 7.45306 0.550781 7.8935 0.550781C8.24586 0.550781 8.59821 0.725381 8.77439 1.07458L10.1838 3.78087C10.36 4.04277 10.6243 4.21737 10.8885 4.30467L13.8835 4.82847C14.2359 4.91577 14.5883 5.17767 14.6763 5.52687C14.7644 5.87607 14.6763 6.22527 14.4121 6.48717L12.2099 8.66966C12.0337 8.93156 11.8575 9.19346 11.9456 9.54266L12.4741 12.5108Z" fill="#FFBB00"/>
</svg>
